<svg xmlns="http://www.w3.org/2000/svg" viewBox="0 0 1500 300">
  <title>G0v暫</title>
  <g id="SUMMIT">
    <g>
      <path d="M42.31,221.5a10.08,10.08,0,0,1-4.23-3.89,10.48,10.48,0,0,1-1.75-5.73,10.32,10.32,0,0,1,2.47-7A7.86,7.86,0,0,1,45,202a8,8,0,0,1,3.92.92,91.11,91.11,0,0,0,40.64,9.4q35.88,0,35.88-26.13A14.89,14.89,0,0,0,120.9,175a29.18,29.18,0,0,0-10.32-6.87q-6.18-2.52-20.42-6.65a199.11,199.11,0,0,1-27-9.4q-12.58-5.26-19-14.78t-6.4-22.57A48.34,48.34,0,0,1,44,90.64,41.8,41.8,0,0,1,62.83,73.45q12.48-6,28.57-6,22.69,0,41,7.57,6,2.52,6,9.39A10.58,10.58,0,0,1,136,91.21a7.41,7.41,0,0,1-6,3.1,7.66,7.66,0,0,1-3.3-.92A91.82,91.82,0,0,0,93.46,87.2Q77,87.2,67,94.08a21.82,21.82,0,0,0-10,19q0,8.25,4.95,13.07A34.27,34.27,0,0,0,73.25,134q6.81,3,20.42,6.41,17.33,4.59,26.4,8.71a39.89,39.89,0,0,1,17.64,14.21q6.69,9.63,6.7,24.3a42.73,42.73,0,0,1-6.6,23.14,44,44,0,0,1-18.87,16.16,64.65,64.65,0,0,1-27.54,5.62A111.8,111.8,0,0,1,42.31,221.5Z" style="fill: #4d4d4d"/>
      <path d="M203,225.63a53.86,53.86,0,0,1-22.69-21.54q-8.46-14.44-8.46-34.15V79.41a11.16,11.16,0,0,1,2.79-7.56,8.58,8.58,0,0,1,6.7-3.21,8.9,8.9,0,0,1,6.81,3.21A11,11,0,0,1,191,79.41v91.22q0,14,5.77,23.14a36.3,36.3,0,0,0,14.54,14.33A41.5,41.5,0,0,0,231.25,213a42.4,42.4,0,0,0,19.8-4.81,35.71,35.71,0,0,0,15.06-14.78q5.36-9.74,5.36-22.8V79.41a11.2,11.2,0,0,1,2.78-7.56A8.59,8.59,0,0,1,281,68.64a8.86,8.86,0,0,1,6.8,3.21,10.92,10.92,0,0,1,2.89,7.56v90.53q0,20.16-8.66,34.61a56.29,56.29,0,0,1-22,20.85,61.62,61.62,0,0,1-57,.23Z" style="fill: #4d4d4d"/>
      <path d="M332,228.27a10.76,10.76,0,0,1-2.79-7.45V84a15.8,15.8,0,0,1,4-10.78,12.36,12.36,0,0,1,9.59-4.58h6.8a12.17,12.17,0,0,1,7.43,2.64,16.49,16.49,0,0,1,5.36,7.22l45,124.67c.41,1.07,1,1.6,1.65,1.6s1.23-.53,1.65-1.6l45-124.67A16.51,16.51,0,0,1,461,71.28a12.12,12.12,0,0,1,7.42-2.64h6.81a12.37,12.37,0,0,1,9.59,4.58,15.83,15.83,0,0,1,4,10.78V220.82a10.79,10.79,0,0,1-2.78,7.45,8.73,8.73,0,0,1-6.71,3.09,9,9,0,0,1-6.8-3.09,10.53,10.53,0,0,1-2.89-7.45v-121c0-1.38-.41-2.06-1.24-2.06-.55,0-1,.46-1.44,1.37L422.45,221.5a15.41,15.41,0,0,1-5.36,7.11,13.14,13.14,0,0,1-16.09,0,15.48,15.48,0,0,1-5.36-7.11L351.09,99.12c-.42-.91-.9-1.37-1.45-1.37-.82,0-1.23.68-1.23,2.06v121a10.57,10.57,0,0,1-2.89,7.45,9,9,0,0,1-6.81,3.09A8.7,8.7,0,0,1,332,228.27Z" style="fill: #4d4d4d"/>
      <path d="M531.26,228.27a10.76,10.76,0,0,1-2.79-7.45V84a15.8,15.8,0,0,1,4-10.78,12.36,12.36,0,0,1,9.59-4.58h6.8a12.17,12.17,0,0,1,7.43,2.64,16.49,16.49,0,0,1,5.36,7.22l45,124.67c.41,1.07,1,1.6,1.65,1.6s1.23-.53,1.65-1.6l45-124.67a16.51,16.51,0,0,1,5.37-7.22,12.12,12.12,0,0,1,7.42-2.64h6.81a12.37,12.37,0,0,1,9.59,4.58,15.83,15.83,0,0,1,4,10.78V220.82a10.79,10.79,0,0,1-2.78,7.45,8.73,8.73,0,0,1-6.71,3.09,9,9,0,0,1-6.8-3.09,10.53,10.53,0,0,1-2.89-7.45v-121c0-1.38-.41-2.06-1.24-2.06-.55,0-1,.46-1.44,1.37L621.7,221.5a15.41,15.41,0,0,1-5.36,7.11,13.14,13.14,0,0,1-16.09,0,15.48,15.48,0,0,1-5.36-7.11L550.34,99.12c-.42-.91-.9-1.37-1.45-1.37-.82,0-1.23.68-1.23,2.06v121a10.57,10.57,0,0,1-2.89,7.45,9,9,0,0,1-6.81,3.09A8.7,8.7,0,0,1,531.26,228.27Z" style="fill: #4d4d4d"/>
      <path d="M730.51,228.27a10.76,10.76,0,0,1-2.79-7.45V79.41a11.16,11.16,0,0,1,2.79-7.56,8.57,8.57,0,0,1,6.7-3.21A8.9,8.9,0,0,1,744,71.85a11,11,0,0,1,2.89,7.56V220.82a10.57,10.57,0,0,1-2.89,7.45,9,9,0,0,1-6.81,3.09A8.7,8.7,0,0,1,730.51,228.27Z" style="fill: #4d4d4d"/>
      <path d="M822.71,228.27a10.76,10.76,0,0,1-2.79-7.45V89.73H778.05a8.16,8.16,0,0,1-6.29-2.87,10.07,10.07,0,0,1-2.58-7,10.47,10.47,0,0,1,2.58-7.1,8,8,0,0,1,6.29-3H880.77a8.32,8.32,0,0,1,6.4,3,10.27,10.27,0,0,1,2.68,7.1,9.88,9.88,0,0,1-2.68,7,8.48,8.48,0,0,1-6.4,2.87H839.11V220.82a10.57,10.57,0,0,1-2.89,7.45,9,9,0,0,1-6.81,3.09A8.7,8.7,0,0,1,822.71,228.27Z" style="fill: #4d4d4d"/>
      <path d="M970.5,226.89a12.39,12.39,0,0,1-3.1-8.82,40.61,40.61,0,0,1,6.4-22.23,76.39,76.39,0,0,1,14-16.85q8.25-7.44,24.75-19.14,12-8.47,20-15.12,17.33-14.44,17.33-28.88,0-13.75-8.15-21t-24.24-7.22a78.66,78.66,0,0,0-35.27,8.25,10.06,10.06,0,0,1-3.92,1.15,7.37,7.37,0,0,1-5.67-2.64,9.39,9.39,0,0,1-2.37-6.53A9.66,9.66,0,0,1,975,79.18a92.77,92.77,0,0,1,45.79-11.69A49.79,49.79,0,0,1,1045,73.22a43.19,43.19,0,0,1,17.32,16.62,47.66,47.66,0,0,1,6.19,24.41,46.67,46.67,0,0,1-7,25.21,90.52,90.52,0,0,1-15.78,19.25q-9.18,8.47-27.13,21.31-15.67,11.92-22.37,18t-9.39,12.26h71.37a8.35,8.35,0,0,1,6.39,3,10.27,10.27,0,0,1,2.68,7.11,9.84,9.84,0,0,1-2.68,7,8.46,8.46,0,0,1-6.39,2.86H978.54A10.46,10.46,0,0,1,970.5,226.89Z" style="fill: #4d4d4d"/>
      <path d="M1106.94,210.5q-14.55-22-14.54-60.5t14.54-60.5q14.54-22,41.56-22,26.61,0,41.36,21.78T1204.6,150q0,39-14.74,60.73t-41.36,21.78Q1121.47,232.51,1106.94,210.5Zm68.79-14.09q9.69-16.38,9.69-46.41,0-29.79-9.69-46.18T1148.5,87.43q-17.54,0-27.23,16.39T1111.58,150q0,30,9.69,46.41t27.23,16.39Q1166,212.8,1175.73,196.41Z" style="fill: #4d4d4d"/>
      <path d="M1229.56,226.89a12.43,12.43,0,0,1-3.09-8.82,40.69,40.69,0,0,1,6.39-22.23,76.71,76.71,0,0,1,14-16.85q8.25-7.44,24.75-19.14,12-8.47,20-15.12Q1309,130.29,1309,115.85q0-13.75-8.14-21t-24.24-7.22a78.63,78.63,0,0,0-35.27,8.25,10.06,10.06,0,0,1-3.92,1.15,7.37,7.37,0,0,1-5.67-2.64,9.39,9.39,0,0,1-2.37-6.53,9.64,9.64,0,0,1,4.74-8.71,92.77,92.77,0,0,1,45.79-11.69A49.72,49.72,0,0,1,1304,73.22a43.22,43.22,0,0,1,17.33,16.62,47.75,47.75,0,0,1,6.19,24.41,46.59,46.59,0,0,1-7,25.21,90.22,90.22,0,0,1-15.78,19.25q-9.16,8.47-27.12,21.31-15.67,11.92-22.38,18t-9.38,12.26h71.36a8.35,8.35,0,0,1,6.4,3,10.31,10.31,0,0,1,2.68,7.11,9.88,9.88,0,0,1-2.68,7,8.47,8.47,0,0,1-6.4,2.86h-79.61A10.48,10.48,0,0,1,1229.56,226.89Z" style="fill: #4d4d4d"/>
      <path d="M1366,210.5q-14.55-22-14.55-60.5T1366,89.5q14.54-22,41.56-22,26.61,0,41.35,21.78T1463.67,150q0,39-14.75,60.73t-41.35,21.78Q1380.54,232.51,1366,210.5Zm68.78-14.09q9.7-16.38,9.7-46.41,0-29.79-9.7-46.18t-27.22-16.39q-17.53,0-27.23,16.39T1370.65,150q0,30,9.69,46.41t27.23,16.39Q1425.09,212.8,1434.79,196.41Z" style="fill: #4d4d4d"/>
    </g>
  </g>
</svg>
