<svg xmlns="http://www.w3.org/2000/svg" viewBox="0 0 1500 550">
  <defs>
    <style>
      .cls-1 {
        isolation: isolate;
      }

      .cls-2 {
        fill: #9760ff;
      }

      .cls-3 {
        fill: #3c3c3c;
      }

      .cls-4 {
        fill: #999;
      }

      .cls-5 {
        fill: #ff686c;
      }

      .cls-6 {
        fill: #a9f57f;
      }

      .cls-7 {
        mix-blend-mode: screen;
      }

      .cls-8 {
        fill: #3fa9f5;
      }

      .cls-9 {
        fill: #ffba25;
      }

      .cls-10 {
        fill: #ff1d25;
      }
    </style>
  </defs>
  <title>G0v暫改</title>
  <g class="cls-1">
    <g id="G紫">
      <path class="cls-2" d="M233.32,142.82c-78,0-142.12,64.18-142.12,142.12s64.17,142.12,142.12,142.13,142.15-64.15,142.15-142.13S311.29,142.81,233.32,142.82Z"/>
    </g>
    <g id="G">
      <path class="cls-3" d="M424.64,284.94a11.8,11.8,0,0,1,11.72,12.59c-6.5,106.38-94.83,190.65-202.86,190.65-115.9,0-209.15-97.05-202.91-214.34,5.58-105,91.83-189,196.9-192a202.43,202.43,0,0,1,128.19,40.73,11.76,11.76,0,0,1,1.46,17.52l-33.42,35a142.12,142.12,0,1,0,38.72,169.68h-90a11.71,11.71,0,0,1-11.71-11.71V296.65a11.72,11.72,0,0,1,11.71-11.71Z"/>
    </g>
    <g id="SUMMIT">
      <ellipse class="cls-4" cx="234.49" cy="526.1" rx="128.42" ry="11.61"/>
      <ellipse class="cls-4" cx="759.1" cy="526.1" rx="137.3" ry="11.61"/>
      <ellipse class="cls-4" cx="1271.98" cy="526.1" rx="128.42" ry="11.61"/>
    </g>
    <g id="O">
      <circle class="cls-3" cx="747.18" cy="284.95" r="203.22"/>
    </g>
    <g id="O橘">
      <circle class="cls-5" cx="747.18" cy="284.95" r="142.13"/>
    </g>
    <g id="_0_" data-name="0/">
      <path class="cls-3" d="M655.29,414,942.08,141.84a30.51,30.51,0,0,0,1.13-43.13h0a30.51,30.51,0,0,0-43.13-1.13L613.29,369.74"/>
    </g>
    <g id="V">
      <path class="cls-3" d="M1458,116.24h-53.68L1272,345.38l-132.3-229.14H1086a11.74,11.74,0,0,0-10.16,17.6l190,329.16a7,7,0,0,0,12.2,0l190-329.16A11.74,11.74,0,0,0,1458,116.24Z"/>
    </g>
    <g id="V綠">
      <polygon class="cls-6" points="1271.98 345.38 1404.28 116.24 1139.68 116.24 1271.98 345.38"/>
    </g>
    <g id="V大點">
      <g class="cls-7">
        <circle class="cls-8" cx="1293.83" cy="204.02" r="51.27"/>
      </g>
    </g>
    <g id="V小點">
      <g class="cls-7">
        <circle class="cls-9" cx="1189.71" cy="109.69" r="29.73"/>
      </g>
    </g>
    <g id="O小點">
      <g class="cls-7">
        <circle class="cls-9" cx="723.79" cy="399.19" r="25.6"/>
      </g>
    </g>
    <g id="O大點">
      <g class="cls-7">
        <circle class="cls-9" cx="686.15" cy="223.58" r="55.55"/>
      </g>
    </g>
    <g id="G小點">
      <g class="cls-7">
        <circle class="cls-9" cx="355.6" cy="207.03" r="22.97"/>
      </g>
    </g>
    <g id="G大點">
      <g class="cls-7">
        <circle class="cls-10" cx="177.23" cy="295.52" r="84.7"/>
      </g>
    </g>
    <g id="G中點">
      <g class="cls-7">
        <circle class="cls-9" cx="234.49" cy="246.83" r="36.26"/>
      </g>
    </g>
  </g>
</svg>
